<svg xmlns="http://www.w3.org/2000/svg" viewBox="0 0 1856.9 704"><defs><style>.cls-1{fill:#f9e8ca;}</style></defs><g id="tape"><path class="cls-1" d="M354,208s291,3,459,21,1262,72,1262,72l14,8s0,45,2,48,11,9,13,17,2,19,10,32,5,44.24,0,49.62c4,4.76,50,73.38,25,93.38,2,10,9,64-18,50-3,23,3,57-4,63s-31-1-37,19-13,85-4,102c-3,9-13,21-4,43-4,16-8,17,0,24-5,7-21,40-22,62-18,0-1628-105.94-1696-97.47-1-27.06,4-38.53-8-57.53s-23.5-60.5-17.5-76.5c-11-33-16-64-31-86-3-32-8-75-8-75s20-26,21-37,23-53,23-53,17-51,15-61-15-34-13-44,17-15,14-23-13-32-10-55S352.5,224.5,354,208Z" transform="translate(-289.5 -208)"/></g><g id="name"><path d="M606.5,332s1-13,15-4,25,14,20,37-19,95-19,95h80.17S737.5,325,745.5,310s13-17,22-11,26,8,8,52-45,191-48,246c5,6,13,30,1,40s-36,9-41-17,.94-87,7.47-118.49C682,502.49,622.5,503,611.5,507c-2,12-29,147-42,170s-26,19-35,14-19-2-6-41,37-129,39-136c-8,3-25,19-35,19S501,509.39,522.27,489.2,578.5,466,578.5,466Z" transform="translate(-289.5 -208)"/><path d="M1921.24,576c-13.25,0-62.74-2-132.74,7s-250,29-250,29-18-9-37-20-20-26-20-26,7,3,18-5,88-48,132-69,44-40,26-61-44-12-81,0-87,49-100,57c3-40-1-45-13-59s-26-22-51-17-101,72-101,72-68,67-88,100c-1-39,30-109,39-137s9-34-3-41-25-14-29,5-59,72-84,97-117,88-117,88-1-14,2-55,51-41,96-59,22-50,18-57-41-38-73-22c-42,21-50,45-59,62-4.92-4.1-31-35-46-43s-16,6-16,6l-20,64s-8-30-9-47-4-20-8-23-29-21-31-13-23,38-26,49-37,81-37,81,1.5-62.5,4.5-93.5,0-28-18-38-18,12-18,12S771.5,531,770.5,561s4,44,23,67,41-10,41-10,45-115,54-142c0,35,8,77,22,103s31,10,39.33-3S977.5,476,977.5,476l24,24s-12,29-14,61,3,33,17,51,20,37,56,20,125-115,130-123c-10,18-15,86-15,104s4,25,25,40,30-6,34-22c45-93,157-165,180-176s24-2,24,7-5,37-8,79,39,70,57,82c-84,11-190.36,42-225,55-24,9-66,64,64.9,92s329.1-3,361.1-13,26-29,7-46-95-64-95-64,206-33,281-41,72-9,73-20S1934.5,576,1921.24,576ZM1107.5,430c15,13-32,27-32,27S1098.88,422.53,1107.5,430ZM1625,700.5c11.5,6.5,61.55,28.28,17,37-46,9-165,36-317.5,3.5-168.62-35.94,138-73,222-86C1546.5,655,1616,695.43,1625,700.5Z" transform="translate(-289.5 -208)"/></g></svg>